<?xml version="1.0" encoding="UTF-8"?>
<svg xmlns="http://www.w3.org/2000/svg" viewBox="0 0 2000 2000" width="2000" height="2000" preserveAspectRatio="xMidYMid meet">
  <title>Darbar Restaurant Logo</title>
  <g transform="translate(0,2000) scale(0.1,-0.1)" stroke="none">
    <path fill="#b8924a" d="M9927 15589 c-110 -11 -249 -43 -374 -85 -101 -33 -351 -149 -418
-194 -16 -10 -43 -27 -59 -36 -148 -83 -428 -317 -636 -530 -251 -258 -502
-571 -743 -929 -41 -60 -101 -155 -134 -210 -108 -180 -247 -471 -241 -503 2
-9 95 108 207 259 113 151 221 294 241 319 20 25 63 79 96 119 614 771 1135
1220 1654 1425 179 70 334 100 525 100 166 0 284 -20 445 -76 249 -88 527
-272 698 -464 112 -125 217 -304 266 -456 37 -112 66 -287 66 -394 0 -98 -26
-251 -60 -348 -111 -324 -389 -614 -771 -807 -135 -68 -248 -112 -428 -165
-12 -4 -13 -118 -7 -779 5 -557 4 -775 -4 -775 -6 0 -27 7 -48 16 -58 25 -249
93 -332 119 -436 135 -834 192 -1270 182 -396 -9 -671 -55 -1010 -167 -147
-48 -166 -56 -345 -139 -157 -72 -424 -232 -425 -254 0 -22 224 52 432 143
237 103 597 185 919 210 776 59 1568 -119 2202 -494 87 -51 95 -53 137 -31
l30 16 0 870 c0 687 3 870 13 873 6 3 39 12 72 22 592 172 1040 638 1165 1211
74 342 32 689 -120 993 -92 183 -178 298 -338 451 -375 360 -926 559 -1405
508z"/>
    <path fill="#b8924a" d="M5580 14349 c-301 -24 -557 -187 -751 -480 -229 -344 -299 -747 -179
-1041 129 -317 530 -578 1130 -737 271 -72 475 -109 745 -136 94 -9 179 -19
191 -21 26 -4 27 -21 49 -474 15 -318 23 -428 31 -442 3 -4 26 8 52 26 138
100 286 165 616 270 129 41 244 80 256 86 22 12 28 40 8 40 -20 0 -147 -24
-488 -94 -173 -35 -318 -62 -322 -59 -14 7 -8 162 12 358 29 281 25 412 -13
444 -13 10 -200 50 -307 66 -25 3 -79 13 -120 21 -41 8 -149 28 -240 44 -224
40 -356 74 -550 143 -508 181 -789 401 -850 666 -25 107 1 333 56 485 55 153
117 251 234 366 92 92 172 144 290 189 130 50 225 65 390 58 214 -8 305 -40
688 -241 158 -83 327 -159 392 -175 30 -8 139 -11 335 -9 268 3 290 4 293 21
6 28 -53 46 -174 52 -244 14 -414 72 -769 262 -99 54 -222 119 -274 145 -265
134 -492 186 -731 167z"/>
    <path fill="#b8924a" d="M10125 14321 c-60 -18 -218 -81 -265 -106 -14 -8 -68 -35 -120 -61
-177 -87 -316 -191 -462 -343 -87 -90 -197 -241 -242 -331 -58 -116 -107 -269
-142 -446 -3 -17 -15 -24 -61 -33 -534 -106 -609 -136 -958 -396 -159 -118
-224 -160 -322 -209 -274 -136 -590 -150 -927 -40 -112 36 -321 130 -408 184
-53 33 -68 32 -68 -5 0 -36 51 -88 148 -152 170 -112 331 -179 536 -225 137
-30 424 -33 561 -4 238 49 369 116 640 326 198 153 302 213 475 270 156 52
270 71 465 77 296 9 498 -22 929 -142 32 -9 61 -14 64 -10 13 13 -15 60 -47
79 -19 11 -73 34 -120 51 l-86 31 2 54 c6 121 71 261 168 362 95 98 215 175
510 328 88 46 163 88 167 94 4 6 8 22 8 35 0 23 -2 24 -54 17 -29 -3 -98 -17
-152 -31 -322 -84 -553 -204 -735 -385 -89 -88 -149 -174 -195 -279 l-33 -76
-63 3 c-35 1 -76 6 -93 10 -30 8 -30 9 -33 93 -11 263 111 532 348 770 158
159 325 273 551 378 123 57 124 58 124 92 0 29 -4 34 -25 36 -14 1 -52 -6 -85
-16z"/>
    <path fill="#b8924a" d="M4313 12061 c-107 -36 -292 -163 -427 -291 -64 -60 -86 -90 -114
-150 -34 -73 -35 -79 -44 -251 -4 -96 -7 -1413 -6 -2925 4 -2923 2 -2809 50
-2835 55 -30 175 17 358 139 192 129 307 256 343 380 8 25 13 580 16 1777 6
1642 7 1742 24 1773 21 38 51 42 90 12 37 -29 276 -316 395 -475 123 -163 292
-412 292 -431 0 -3 15 -29 34 -59 49 -76 217 -419 267 -545 114 -290 196 -614
219 -870 12 -140 12 -463 0 -575 -52 -457 -290 -959 -604 -1270 -207 -205
-463 -328 -851 -407 -151 -31 -394 -30 -539 1 -232 50 -395 135 -555 290 -212
207 -301 470 -241 719 18 75 67 193 91 217 5 5 9 26 9 47 0 52 -27 78 -81 78
-40 0 -47 -5 -163 -122 -289 -292 -415 -558 -416 -874 0 -260 78 -463 250
-648 102 -110 285 -222 449 -276 134 -44 250 -60 461 -67 704 -21 1331 241
1919 802 517 493 883 1193 981 1880 81 563 33 1093 -138 1521 -101 253 -308
629 -484 879 -39 55 -87 123 -106 150 -57 81 -251 319 -386 474 -221 252 -380
457 -554 716 -217 323 -323 608 -352 945 -21 245 -20 241 -45 266 -29 29 -69
30 -142 5z"/>
    <path fill="#b8924a" d="M11785 12058 c-85 -36 -271 -166 -359 -252 -93 -89 -117 -132 -138
-244 -19 -99 -19 -4528 0 -4686 18 -148 64 -322 108 -413 98 -197 328 -325
584 -325 159 0 277 42 473 170 227 147 419 309 503 423 53 73 99 175 130 289
l28 105 4 728 c3 790 3 799 -53 991 -38 130 -72 192 -145 267 -93 94 -156 122
-282 127 -104 5 -152 -4 -259 -44 -79 -29 -228 -113 -286 -160 -55 -45 -92
-53 -118 -24 -20 22 -20 46 -25 1514 -5 1554 -4 1522 -44 1548 -20 14 -70 8
-121 -14z m468 -3342 c104 -45 165 -195 188 -466 6 -65 9 -426 7 -836 -3 -611
-5 -724 -17 -738 -13 -16 -32 -17 -160 -14 -132 3 -151 5 -196 28 -56 28 -88
69 -106 138 -18 70 -25 1777 -7 1811 39 74 200 116 291 77z"/>
    <path fill="#d4a96a" d="M12328 10365 c-86 -88 -159 -171 -167 -190 -25 -62 -10 -93 102 -211
56 -60 123 -131 147 -157 53 -57 86 -77 132 -77 30 0 50 17 194 165 89 91 167
179 174 196 25 59 4 92 -168 267 l-157 162 -53 0 -52 0 -152 -155z"/>
    <path fill="#b8924a" d="M10579 9536 c-60 -31 -196 -125 -297 -204 -112 -87 -168 -158 -176
-225 -9 -80 -12 -82 -292 -289 -285 -211 -436 -408 -498 -653 -41 -160 -46
-268 -46 -907 l0 -600 -172 4 c-168 3 -175 4 -224 31 -63 35 -78 60 -98 168
-14 75 -16 224 -16 1225 -1 626 -5 1170 -9 1207 -12 88 -31 111 -88 104 -93
-10 -294 -139 -434 -277 -84 -84 -87 -88 -114 -175 -64 -208 -75 -237 -130
-322 -63 -97 -285 -326 -415 -429 -211 -166 -407 -353 -482 -458 -111 -157
-155 -298 -164 -531 -11 -261 20 -503 85 -676 91 -240 332 -393 616 -391 160
1 248 35 484 188 47 30 96 54 110 54 19 0 47 -19 95 -65 87 -83 168 -128 281
-157 83 -21 110 -23 335 -21 179 1 262 5 310 16 36 9 77 13 92 10 81 -16 331
108 464 230 69 63 98 113 125 213 21 76 22 108 29 934 7 840 8 856 29 935 57
206 147 312 219 258 33 -25 137 -227 177 -343 34 -100 44 -240 25 -335 -23
-112 -23 -125 -5 -145 41 -46 141 -10 276 98 188 151 268 305 285 549 10 143
-8 249 -68 417 -68 190 -124 365 -139 434 -14 69 -42 128 -68 142 -30 15 -54
12 -102 -14z m-2518 -1273 c11 -23 15 -153 20 -708 4 -427 11 -697 17 -725 18
-74 15 -127 -9 -151 -20 -20 -29 -21 -173 -17 -137 3 -156 5 -201 28 -42 21
-55 35 -78 82 -26 51 -30 73 -39 210 -20 307 5 558 79 777 61 182 170 377 268
478 60 62 93 69 116 26z"/>
    <path fill="#b8924a" d="M17121 9511 c-122 -74 -235 -157 -321 -238 -82 -77 -110 -121 -110
-173 0 -51 -26 -87 -108 -147 -253 -186 -316 -236 -398 -318 -186 -185 -257
-316 -306 -565 -19 -98 -21 -149 -25 -757 l-5 -653 -147 0 c-242 0 -302 30
-337 170 -18 71 -19 148 -24 1295 -5 1267 -5 1253 -46 1269 -57 22 -184 -38
-356 -167 -182 -136 -208 -174 -268 -380 -44 -148 -79 -211 -192 -344 -90
-105 -200 -207 -412 -382 -269 -223 -409 -378 -478 -531 -63 -139 -78 -226
-78 -468 0 -297 33 -488 112 -652 124 -253 461 -393 751 -312 97 28 126 42
280 142 77 51 132 80 150 80 20 0 47 -18 103 -70 87 -81 161 -122 277 -153 74
-19 106 -22 327 -21 191 1 261 4 317 17 39 9 78 14 87 11 70 -27 401 143 501
258 39 45 77 120 97 191 7 29 13 303 18 887 8 917 8 922 65 1065 48 121 101
185 150 185 51 0 141 -153 209 -353 48 -138 55 -218 31 -348 -23 -125 -17
-153 37 -157 76 -6 204 74 330 206 135 141 188 291 188 526 0 144 -12 199 -85
401 -56 156 -89 263 -126 402 -24 94 -53 133 -97 133 -17 0 -63 -21 -111 -49z
m-2484 -1233 c6 -7 13 -24 16 -38 4 -14 7 -280 8 -590 1 -311 6 -605 10 -655
4 -49 11 -137 15 -195 9 -147 13 -144 -188 -138 -157 4 -191 12 -242 57 -56
49 -76 163 -76 442 0 352 50 583 181 827 118 222 234 343 276 290z"/>
    <path fill="#d4a96a" d="M7047 5353 c-4 -3 -7 -217 -7 -475 l0 -469 53 3 52 3 3 148 3 147
158 0 159 0 29 -37 c16 -21 64 -89 107 -150 l77 -113 55 0 c30 0 54 4 54 9 0
5 -47 75 -105 156 -58 81 -105 150 -105 154 0 3 21 17 46 30 98 52 154 152
154 274 0 169 -106 288 -280 316 -71 12 -443 15 -453 4z m464 -103 c115 -32
184 -143 160 -259 -15 -77 -52 -125 -120 -158 -53 -27 -64 -28 -228 -31 l-173
-4 0 231 0 231 163 0 c89 0 178 -5 198 -10z"/>
    <path fill="#d4a96a" d="M8175 5348 c-3 -7 -4 -220 -3 -473 l3 -460 330 0 330 0 0 45 c0 38
-3 45 -20 46 -11 1 -136 2 -277 3 l-258 1 0 170 0 170 240 0 240 0 0 45 0 45
-240 0 -240 0 0 160 0 160 253 2 c138 0 259 1 267 2 11 1 15 13 15 46 l0 45
-318 3 c-249 2 -319 0 -322 -10z"/>
    <path fill="#d4a96a" d="M9351 5344 c-130 -46 -203 -157 -184 -280 18 -116 89 -167 325 -230
73 -19 152 -46 175 -60 119 -69 88 -224 -52 -263 -57 -16 -203 -14 -261 4 -27
8 -75 30 -108 50 -32 19 -62 35 -66 35 -9 0 -30 -47 -30 -68 0 -23 91 -78 172
-104 82 -27 248 -29 328 -5 123 36 195 128 194 247 -2 140 -70 195 -325 260
-144 38 -186 57 -224 102 -24 28 -27 38 -23 87 4 48 10 59 45 92 23 21 59 43
84 49 91 25 237 7 328 -40 44 -22 56 -15 67 38 6 28 3 32 -35 51 -22 12 -66
28 -98 36 -76 20 -253 19 -312 -1z"/>
    <path fill="#d4a96a" d="M10063 5348 c-13 -16 -6 -70 10 -80 7 -4 57 -7 112 -7 55 1 124 1
152 0 l53 -1 -1 -422 0 -423 50 -3 51 -3 0 425 0 426 163 2 162 3 0 45 0 45
-371 3 c-290 2 -374 -1 -381 -10z"/>
    <path fill="#d4a96a" d="M11330 5274 c-22 -48 -40 -88 -40 -90 0 -1 -27 -59 -60 -129 -33 -70
-60 -128 -60 -130 0 -2 -18 -42 -40 -89 -22 -47 -40 -87 -40 -89 0 -3 -25 -58
-56 -123 -79 -167 -93 -201 -87 -208 4 -3 28 -6 53 -6 l48 0 22 53 c12 28 37
85 56 125 l34 72 260 0 261 0 26 -62 c15 -35 41 -90 58 -123 29 -58 31 -60 74
-63 24 -2 47 0 52 5 6 7 -70 181 -233 533 -35 75 -48 105 -137 300 l-47 105
-52 3 -52 3 -40 -87z m152 -171 c31 -71 79 -179 107 -240 l50 -113 -214 0
c-154 0 -215 3 -215 11 0 16 203 469 210 469 3 0 31 -57 62 -127z"/>
    <path fill="#d4a96a" d="M12187 5354 c-11 -11 -8 -549 3 -629 32 -226 213 -352 456 -316 140
21 235 90 286 211 22 53 23 65 26 398 l3 343 -48 -3 -48 -3 -6 -320 c-3 -176
-10 -334 -16 -351 -26 -77 -66 -125 -133 -160 -27 -15 -57 -19 -135 -19 -78 0
-108 4 -135 19 -67 35 -106 83 -133 160 -6 18 -13 167 -16 351 l-6 320 -45 3
c-25 2 -49 0 -53 -4z"/>
    <path fill="#d4a96a" d="M13419 5328 c-2 -18 -3 -232 -1 -475 l2 -443 50 0 49 0 3 148 3 147
160 3 160 2 65 -90 c165 -230 146 -210 201 -210 33 0 49 4 49 13 0 7 -47 79
-105 161 -58 82 -105 150 -103 151 2 1 19 10 38 19 60 27 107 74 135 131 73
148 23 339 -107 413 -89 51 -157 62 -389 62 l-207 0 -3 -32z m516 -95 c80 -43
115 -105 115 -205 0 -46 -6 -72 -21 -98 -64 -107 -133 -132 -354 -128 l-150 3
-3 228 -2 229 187 -4 c170 -3 192 -5 228 -25z"/>
    <path fill="#d4a96a" d="M14801 5298 c-56 -123 -149 -326 -185 -404 -140 -301 -213 -470 -206
-477 4 -5 27 -7 51 -5 42 3 45 6 69 53 14 28 40 83 57 123 l32 72 262 -2 263
-3 52 -120 52 -120 48 -3 c26 -2 50 0 55 5 4 4 -1 26 -11 48 -10 22 -33 72
-50 110 -18 39 -47 102 -65 140 -18 39 -76 165 -128 280 -52 116 -111 245
-131 288 l-35 77 -51 0 -51 0 -28 -62z m187 -296 c56 -125 102 -233 102 -239
0 -10 -49 -13 -210 -13 -161 0 -210 3 -210 13 0 16 202 467 209 467 3 0 52
-103 109 -228z"/>
    <path fill="#d4a96a" d="M15675 5348 c-3 -7 -4 -220 -3 -473 l3 -460 50 0 50 0 5 368 5 369
21 -24 c12 -13 84 -102 160 -199 77 -97 197 -250 268 -340 71 -90 134 -167
140 -172 6 -4 29 -6 51 -5 l40 3 3 456 c1 251 -1 464 -4 473 -5 13 -17 16 -53
14 l-46 -3 -5 -374 -5 -373 -85 107 c-47 60 -112 142 -145 183 -33 41 -76 96
-96 121 -19 25 -75 96 -125 158 -49 61 -102 127 -117 147 -24 31 -34 36 -68
36 -22 0 -42 -5 -44 -12z"/>
    <path fill="#d4a96a" d="M16783 5348 c-12 -20 -12 -38 -3 -64 9 -24 11 -24 164 -24 131 0 155
-2 160 -16 3 -9 6 -200 6 -425 l0 -409 50 0 50 0 0 425 0 425 154 0 c130 0
157 3 171 16 9 9 14 23 11 31 -3 8 -6 23 -6 34 0 18 -12 19 -374 19 -289 0
-377 -3 -383 -12z"/>
  </g>
</svg>